<svg width="1501" height="1483" viewBox="0 0 1501 1483" fill="none" xmlns="http://www.w3.org/2000/svg">
<path d="M1479.99 298.616C1463.51 278.856 1439.31 267.528 1413.58 267.528H292.9L248.608 22.915C246.223 9.71198 234.728 0.11499 221.314 0.11499H28.626C13.304 0.11499 0.888 12.53 0.888 27.853C0.888 43.175 13.303 55.591 28.626 55.591H198.148L242.351 299.738C242.406 300.071 242.473 300.415 242.54 300.748L366.605 985.935V1080.32C366.605 1138.8 414.181 1186.38 472.663 1186.38H1356.82C1372.13 1186.38 1384.56 1173.95 1384.56 1158.64C1384.56 1143.32 1372.13 1130.9 1356.82 1130.9H472.662C444.769 1130.9 422.079 1108.21 422.079 1080.32V1011.19H1309.22C1350.98 1011.19 1386.75 981.375 1394.26 940.291L1498.63 369.527C1503.25 344.228 1496.46 318.376 1479.99 298.616ZM649.464 846.757C648.199 846.924 646.945 847.012 645.703 847.012C632.045 847.012 620.14 836.904 618.254 822.98L569.59 463.167C567.537 447.978 578.178 434.009 593.356 431.957C608.545 429.904 622.514 440.545 624.566 455.734L673.229 815.547C675.282 830.736 664.642 844.704 649.464 846.757ZM903.319 819.263C903.319 834.585 890.904 847.001 875.581 847.001C860.258 847.001 847.843 834.586 847.843 819.263V459.45C847.843 444.128 860.258 431.712 875.581 431.712C890.904 431.712 903.319 444.127 903.319 459.45V819.263ZM1181.57 463.167L1132.9 822.98C1131.02 836.904 1119.12 847.012 1105.45 847.012C1104.21 847.012 1102.96 846.923 1101.7 846.757C1086.52 844.705 1075.87 830.736 1077.93 815.547L1126.6 455.734C1128.65 440.545 1142.61 429.905 1157.79 431.957C1172.97 434.009 1183.63 447.978 1181.57 463.167Z" fill="#153E49"/>
<path d="M564.843 1482.93C629.998 1482.93 682.817 1430.12 682.817 1364.96C682.817 1299.8 629.998 1246.99 564.843 1246.99C499.688 1246.99 446.869 1299.8 446.869 1364.96C446.869 1430.12 499.688 1482.93 564.843 1482.93Z" fill="#153E49"/>
<path d="M1206.4 1482.93C1271.55 1482.93 1324.37 1430.12 1324.37 1364.96C1324.37 1299.8 1271.55 1246.99 1206.4 1246.99C1141.24 1246.99 1088.43 1299.8 1088.43 1364.96C1088.43 1430.12 1141.24 1482.93 1206.4 1482.93Z" fill="#153E49"/>
</svg>
